<?xml version="1.0" standalone="no"?>
<!DOCTYPE svg PUBLIC "-//W3C//DTD SVG 20010904//EN"
 "http://www.w3.org/TR/2001/REC-SVG-20010904/DTD/svg10.dtd">
<svg version="1.0" xmlns="http://www.w3.org/2000/svg"
 width="700.000000pt" height="700.000000pt" viewBox="0 0 700.000000 700.000000"
 preserveAspectRatio="xMidYMid meet">
<metadata>
Created by potrace 1.14, written by Peter Selinger 2001-2017
</metadata>
<g transform="translate(0.000000,700.000000) scale(0.100000,-0.100000)"
fill="#000000" stroke="none">
<path d="M3325 5664 c-16 -9 -57 -38 -90 -64 -33 -26 -127 -95 -209 -154
l-149 -106 41 0 c56 0 64 -15 92 -180 13 -74 25 -138 27 -143 3 -4 13 3 23 15
l18 23 31 -23 c17 -12 31 -21 31 -18 0 2 -21 57 -46 123 -25 65 -50 130 -56
146 -18 49 -7 57 77 57 l75 0 -7 -27 c-12 -46 -7 -157 11 -209 25 -76 81 -142
156 -183 56 -31 75 -36 150 -39 70 -3 95 0 144 19 76 28 147 93 183 168 25 49
28 68 28 151 0 88 -3 100 -32 158 -18 34 -33 69 -33 76 0 8 56 51 125 97 68
46 125 87 125 92 0 4 -46 7 -102 7 -101 0 -388 14 -518 25 -50 4 -72 1 -95
-11z"/>
<path d="M4410 5209 c-101 -55 -261 -162 -460 -309 -284 -209 -359 -247 -475
-237 -84 6 -150 38 -303 146 -70 49 -179 121 -242 159 -197 120 -463 252 -477
239 -2 -3 24 -21 59 -40 143 -80 370 -276 477 -411 107 -136 178 -293 219
-486 22 -104 32 -177 63 -495 22 -229 77 -572 134 -840 20 -93 45 -217 57
-275 31 -156 32 -157 56 -55 29 120 36 163 76 480 36 281 48 430 66 825 23
492 44 546 342 887 90 103 245 248 377 352 124 98 127 100 116 101 -5 0 -44
-19 -85 -41z"/>
<path d="M2642 1764 c-7 -4 -18 -18 -23 -31 -12 -31 9 -59 51 -68 15 -3 36
-15 46 -26 41 -45 -37 -81 -82 -38 -13 12 -24 18 -24 12 0 -14 30 -39 56 -47
28 -8 72 11 79 35 9 29 -9 51 -56 69 -48 19 -65 39 -56 64 9 23 56 20 84 -6
18 -17 23 -18 23 -6 0 9 -6 21 -13 27 -17 13 -67 22 -85 15z"/>
<path d="M2964 1747 c-26 -23 -29 -31 -28 -82 2 -67 22 -95 69 -95 29 0 75 33
75 55 0 4 -11 -4 -25 -19 -48 -52 -105 -21 -105 59 0 22 7 51 16 63 20 29 68
30 88 0 9 -12 18 -19 21 -16 10 10 -29 47 -56 53 -19 5 -34 0 -55 -18z"/>
<path d="M3619 1741 c-58 -59 -28 -171 46 -171 61 0 94 61 74 134 -10 38 -41
66 -72 66 -10 0 -32 -13 -48 -29z m77 1 c37 -24 44 -96 13 -136 -43 -54 -102
-17 -102 65 0 60 48 99 89 71z"/>
<path d="M3949 1741 c-23 -24 -29 -38 -29 -75 0 -86 77 -130 130 -74 31 33 28
121 -5 153 -32 33 -60 31 -96 -4z m87 -12 c46 -51 9 -160 -50 -145 -32 8 -48
38 -48 89 1 69 57 101 98 56z"/>
<path d="M4270 1673 l0 -103 58 2 c56 2 56 2 10 5 -28 2 -48 9 -49 16 -1 7 -1
44 0 82 1 39 -3 77 -9 85 -7 11 -10 -15 -10 -87z"/>
<path d="M3260 1665 c0 -57 4 -95 10 -95 6 0 10 20 10 44 0 41 2 45 29 51 16
3 40 3 55 -1 23 -5 26 -11 26 -50 0 -24 5 -44 10 -44 6 0 10 38 10 95 0 57 -4
95 -10 95 -5 0 -10 -18 -10 -40 l0 -40 -55 0 -55 0 0 40 c0 22 -4 40 -10 40
-6 0 -10 -38 -10 -95z"/>
</g>
</svg>
